<svg width="1084" height="997" fill="none" xmlns="http://www.w3.org/2000/svg"><path d="M3.5 278.573V39.5s15.944-3.54 25.5-6.927c4.545-1.612 11.5-4.5 11.5-4.5s7.892-3.132 13-5c10.612-3.882 16.514-6.354 27.5-9 10.955-2.638 17.244-3.987 28.5-4.5 10.247-.467 16.088.24 26.181 1.461l.319.039c25.828 3.126 39 11.297 64 18.5 15.618 4.5 40 11.5 40 11.5s22.797 5.447 37.5 8.5c31.21 6.48 48.929 9.103 80.5 13.5 31.523 4.39 49.304 6.11 81 9 68.917 6.283 177 8.5 177 8.5l157.5 198H3.5Z" fill="url(#HILLS_GROUP_1__a)" stroke="#fff"/><path d="M135.5 10.5S119.355 8.53 109 9c-11.256.514-17.545 1.863-28.5 4.5-10.986 2.647-16.888 5.12-27.5 9-5.108 1.87-13 5.001-13 5.001s-6.955 2.888-11.5 4.5c-9.556 3.388-25 7-25 7V12S17.068 7.469 26 5.5C34.684 3.587 39.66 2.973 48.5 2 58.028.954 63.414.476 73 .5 82.196.525 87.37.903 96.5 2c15.476 1.861 39 8.5 39 8.5Z" fill="url(#HILLS_GROUP_1__b)" stroke="#fff"/><path d="M813.001 40s73.131 31.03 122.5 42c28.549 6.344 44.967 7.977 73.999 11.5 28.8 3.495 74 6.5 74 6.5l-4 303.5s-64.87-63.415-110.999-98.5c-32.33-24.59-50.503-38.756-86-58.5-34.756-19.331-55.397-28.55-93-41.5-27.187-9.363-43.569-10.879-71-19.5-12.959-4.073-20.32-6.126-33-11-14.36-5.52-22.678-8.304-36-16-8.769-5.066-13.674-8.072-21.5-14.5-8.109-6.661-12.682-10.622-19-19-4.798-6.364-7.947-9.95-10.5-17.5-2.15-6.357-3.48-9.31-4-16-.591-7.592-.901-13.273 1.5-20.5 2.586-7.785 11.5-17 11.5-17s10.353-8.773 17-13.5c6.198-4.407 10.161-6.172 17-9.5 21.344-10.386 25-12.5 58.5-16.5 11.547.065 18.05.506 29.5 2 11.24 1.466 17.47 2.887 28.5 5.5 21.991 5.21 55 18 55 18Z" fill="url(#HILLS_GROUP_1__c)" stroke="#fff"/><path d="M8.5 992.954v-865s68.152-2.053 111.5-7c49.819-5.686 77.338-12.131 126.5-22 85.806-17.225 132.024-35.205 217.5-54 62.422-13.726 96.662-28.907 160.5-32 29.456-1.427 46.015.914 75.5 1.5-33.5 4-37.156 6.114-58.5 16.5-6.839 3.327-10.802 5.093-17 9.5-6.647 4.727-17 13.5-17 13.5s-8.914 9.215-11.5 17c-2.401 7.227-2.091 12.908-1.5 20.5.52 6.69 1.851 9.643 4 16 2.553 7.55 5.702 11.136 10.5 17.5 6.318 8.378 10.891 12.339 19 19 7.826 6.428 12.731 9.434 21.5 14.5 13.322 7.696 21.64 10.48 36 16 12.68 4.874 20.041 6.927 33 11 27.431 8.621 43.813 10.137 71 19.5 37.603 12.95 58.244 22.168 93 41.5 35.497 19.743 53.67 33.91 86 58.5 46.13 35.085 111 98.5 111 98.5v589.5H8.5Z" fill="url(#HILLS_GROUP_1__d)" stroke="#fff"/><path d="M3.5 406V229.5s112.457-6.701 184 0c97.021 9.087 150.677 24.842 243.5 54.5 112.084 35.812 275.5 122 275.5 122H3.5Z" fill="url(#HILLS_GROUP_1__e)" stroke="#fff"/><path d="M.5 992.473v-664s65.23 1.174 107 0c73.218-2.058 114.377-4.959 187-14.5 97.427-12.799 151.603-25 246.5-50.5 85.028-22.848 173.227-74.443 264-68.5 58.476 3.829 106.775 37.351 162 52 39.75 10.543 104 16.5 104 16.5v729H.5Z" fill="url(#HILLS_GROUP_1__f)" stroke="#fff"/><path d="M541 263.8c-94.897 25.5-149.073 37.701-246.5 50.5-72.623 9.541-113.782 12.442-187 14.5-41.77 1.174-107 0-107 0v-30s37.576 3.007 142-5 281-46 281-46 114.793-34.249 190.5-44.5c66.887-9.057 106.005-9.452 169.807-8.381A227.61 227.61 0 0 1 805 195.3c-7.384-.138-14.427-.268-21.193-.381-83.32 2.312-164.411 47.815-242.807 68.881Z" fill="url(#HILLS_GROUP_1__g)"/><path d="M.5 328.8s65.23 1.174 107 0c73.218-2.058 114.377-4.959 187-14.5 97.427-12.799 151.603-25 246.5-50.5 85.028-22.848 173.227-74.443 264-68.5-77.011-1.438-117.02-2.017-191 8-75.707 10.251-190.5 44.5-190.5 44.5s-176.576 37.993-281 46c-104.424 8.007-142 5-142 5v30Z" stroke="#fff"/><path d="M2.5 995.5v-557c91.535-32.859 177.393-65.323 247-76 69.607-10.677 110.373-6.176 178.5 9 96.061 21.398 134.319 75.721 226 111.5 92.501 36.098 142.17 54.67 244 71.5 72.074 8.307 111.37 8.887 178.5 0v441H2.5Z" fill="url(#HILLS_GROUP_1__h)" stroke="#fff"/><path d="M2.5 992.5V624.054c115.769-33.468 199.974-55.726 329.653-46.43 116.176 8.328 172.843 60.346 288.134 76.884 87.138 12.5 137.148 15.681 225.104 11.982 92.275-3.88 231.719-31.894 234.109-33.449V992.5H2.5Z" fill="url(#HILLS_GROUP_1__i)" stroke="#fff"/><path d="M1081 992.5v-280c-116.06 26.405-209.218 33.829-408 38.5-198.782 4.671-259-50.5-259-50.5v292h667Z" fill="url(#HILLS_GROUP_1__j)" stroke="#fff"/><path d="M284 645.5C172.381 637.663 105 673 .5 687v308.5h1077v-242S938.109 770.818 854 770c-84.109-.817-197.254-11.571-311.5-56-99-38.5-154.392-61.19-258.5-68.5Z" fill="url(#HILLS_GROUP_1__k)" stroke="#fff"/><path d="M2.5 966v30H1076v-73.5c-76.626 13.739-122.797 11.524-201.5 8.5-137.015-5.264-222.108-59.738-345.5-62.5-112.581-2.52-177.26 28.647-281.5 62.5-93.956 24.301-147.448 32.476-245 35Z" fill="url(#HILLS_GROUP_1__l)" stroke="#fff"/><defs><linearGradient id="HILLS_GROUP_1__a" x1="110.561" y1="-26.316" x2="133.939" y2="136.816" gradientUnits="userSpaceOnUse"><stop stop-color="#9B7C62"/><stop offset=".49" stop-color="#CDB7A5"/></linearGradient><linearGradient id="HILLS_GROUP_1__b" x1="62.5" y1="22" x2="56.893" y2=".5" gradientUnits="userSpaceOnUse"><stop stop-color="#F1EBDD"/><stop offset="1" stop-color="#CDB7A5"/></linearGradient><linearGradient id="HILLS_GROUP_1__c" x1="552.582" y1="53.046" x2="973.582" y2="278.046" gradientUnits="userSpaceOnUse"><stop stop-color="#523419"/><stop offset="1" stop-color="#D9B191"/></linearGradient><linearGradient id="HILLS_GROUP_1__d" x1="147.5" y1="284.5" x2="1343.08" y2="-128" gradientUnits="userSpaceOnUse"><stop stop-color="#C6A489"/><stop offset=".451" stop-color="#F7DDC5"/></linearGradient><linearGradient id="HILLS_GROUP_1__e" x1="143.5" y1="261.5" x2="125" y2="192.5" gradientUnits="userSpaceOnUse"><stop stop-color="#DFCBBB"/><stop offset="1" stop-color="#CDAD91"/></linearGradient><linearGradient id="HILLS_GROUP_1__f" x1="662" y1="163" x2="748.5" y2="609" gradientUnits="userSpaceOnUse"><stop stop-color="#866D5B"/><stop offset="1" stop-color="#EAD6C6"/></linearGradient><linearGradient id="HILLS_GROUP_1__g" x1="287" y1="359.5" x2="583.5" y2="123.5" gradientUnits="userSpaceOnUse"><stop stop-color="#E4CEBC"/><stop offset="1" stop-color="#F7EAE3"/></linearGradient><linearGradient id="HILLS_GROUP_1__h" x1="218.5" y1="273" x2="329.5" y2="656" gradientUnits="userSpaceOnUse"><stop stop-color="#120E0D"/><stop offset="1" stop-color="#5D483D"/></linearGradient><linearGradient id="HILLS_GROUP_1__i" x1="541" y1="575.5" x2="540.751" y2="741.877" gradientUnits="userSpaceOnUse"><stop stop-color="#83644A"/><stop offset="1" stop-color="#C3A28B"/></linearGradient><linearGradient id="HILLS_GROUP_1__j" x1="747.5" y1="700.5" x2="782.5" y2="821" gradientUnits="userSpaceOnUse"><stop stop-color="#D09E7C"/><stop offset="1" stop-color="#E9C8AD"/></linearGradient><linearGradient id="HILLS_GROUP_1__k" x1="350" y1="981.5" x2="253" y2="589" gradientUnits="userSpaceOnUse"><stop stop-color="#EFC9AA"/><stop offset=".615" stop-color="#957A64"/><stop offset="1" stop-color="#271A0F"/></linearGradient><linearGradient id="HILLS_GROUP_1__l" x1="482.5" y1="1059" x2="462" y2="678.5" gradientUnits="userSpaceOnUse"><stop offset=".147" stop-color="#9A6E4B"/><stop offset=".454" stop-color="#41260B"/></linearGradient></defs></svg>